<svg xmlns="http://www.w3.org/2000/svg" viewBox="0 -0.5 19 19" shape-rendering="crispEdges">
<metadata>Made with Pixels to Svg https://codepen.io/shshaw/pen/XbxvNj</metadata>
<path stroke="rgba(255,255,255,0.01568627450980392)" d="M1 0h1M6 0h1M12 0h1M17 1h1M0 3h1M18 3h1M1 17h1M17 17h1M6 18h1M12 18h1" />
<path stroke="rgba(255,255,255,0.0196078431372549)" d="M2 0h1M1 18h1M4 18h1M14 18h1M17 18h1" />
<path stroke="rgba(255,255,255,0.00392156862745098)" d="M3 0h1M15 0h1M18 0h1M0 4h1M18 4h1M18 5h1M0 15h1M18 15h1M0 16h2M17 16h1M2 18h1" />
<path stroke="rgba(255,255,255,0.03137254901960784)" d="M4 0h1M14 0h1M18 1h1" />
<path stroke="rgba(255,255,255,0.011764705882352941)" d="M5 0h1M13 0h1M17 0h1M5 18h1M13 18h1" />
<path stroke="#000000" d="M7 0h5M5 1h9M3 2h2M7 2h5M14 2h2M2 3h1M9 3h1M16 3h1M1 4h2M9 4h1M16 4h2M1 5h2M9 5h1M16 5h2M1 6h4M7 6h5M14 6h4M0 7h3M5 7h9M16 7h3M0 8h2M6 8h7M17 8h2M0 9h1M6 9h7M18 9h1M0 10h1M6 10h7M18 10h1M1 11h1M7 11h5M17 11h1M1 12h1M7 12h5M17 12h1M1 13h3M6 13h1M12 13h1M15 13h3M2 14h4M13 14h4M2 15h4M13 15h4M3 16h4M12 16h4M5 17h2M12 17h2M7 18h5" />
<path stroke="rgba(255,255,255,0.027450980392156862)" d="M16 0h1M3 18h1M15 18h1" />
<path stroke="rgba(255,255,255,0.023529411764705882)" d="M0 1h2M1 2h1M17 2h1M0 13h1M18 13h1" />
<path stroke="rgba(255,255,255,0.15294117647058825)" d="M3 1h1M15 1h1" />
<path stroke="rgba(255,255,255,0.1450980392156863)" d="M4 1h1M14 1h1M4 17h1M15 17h1" />
<path stroke="rgba(255,255,255,0.00784313725490196)" d="M0 2h1M2 2h1M16 2h1M18 2h1M0 14h1M18 14h1M1 15h1M17 15h1M18 16h1M2 17h1M16 17h1M16 18h1" />
<path stroke="#ffffff" d="M5 2h2M12 2h2M3 3h6M10 3h6M3 4h6M10 4h6M3 5h6M10 5h6M5 6h2M12 6h2M3 7h2M14 7h2M2 8h4M13 8h4M1 9h5M13 9h5M1 10h5M13 10h5M2 11h5M12 11h5M2 12h5M12 12h5M4 13h2M7 13h5M13 13h2M6 14h7M6 15h7M7 16h5M7 17h5" />
<path stroke="rgba(255,255,255,0.14901960784313725)" d="M1 3h1M17 3h1" />
<path stroke="rgba(255,255,255,0.12941176470588237)" d="M0 6h1" />
<path stroke="rgba(255,255,255,0.13333333333333333)" d="M18 6h1" />
<path stroke="rgba(255,255,255,0.3215686274509804)" d="M0 11h1" />
<path stroke="rgba(255,255,255,0.3254901960784314)" d="M18 11h1" />
<path stroke="rgba(255,255,255,0.050980392156862744)" d="M0 12h1" />
<path stroke="rgba(255,255,255,0.054901960784313725)" d="M18 12h1M18 18h1" />
<path stroke="rgba(255,255,255,0.35294117647058826)" d="M1 14h1" />
<path stroke="rgba(255,255,255,0.3568627450980392)" d="M17 14h1" />
<path stroke="rgba(255,255,255,0.058823529411764705)" d="M2 16h1M0 18h1" />
<path stroke="rgba(255,255,255,0.06274509803921569)" d="M16 16h1" />
<path stroke="rgba(255,255,255,0.03529411764705882)" d="M0 17h1M18 17h1" />
<path stroke="rgba(255,255,255,0.1411764705882353)" d="M3 17h1M14 17h1" />
</svg>