<svg xmlns="http://www.w3.org/2000/svg" viewBox="0 -0.5 20 20" shape-rendering="crispEdges">
<metadata>Made with Pixels to Svg https://codepen.io/shshaw/pen/XbxvNj</metadata>
<path stroke="#196331" d="M1 1h1M11 1h2M0 2h2M8 2h3M13 2h4M0 3h1M3 3h5M17 3h2M0 4h1M2 4h6M19 4h1M0 5h4M6 5h2M19 5h1M0 6h3M6 6h2M19 6h1M1 7h7M19 7h1M1 8h7M19 8h1M1 9h19M1 10h19M1 11h7M19 11h1M1 12h7M19 12h1M0 13h3M6 13h2M19 13h1M0 14h4M6 14h2M19 14h1M0 15h1M2 15h6M19 15h1M0 16h1M3 16h5M17 16h2M0 17h2M8 17h3M13 17h4M1 18h1M11 18h2" />
<path stroke="rgba(23,104,46,0.08627450980392157)" d="M9 1h1" />
<path stroke="rgba(0,0,0,0.00392156862745098)" d="M10 1h1M19 3h1M19 16h1M10 18h1" />
<path stroke="rgba(0,85,85,0.011764705882352941)" d="M13 1h1M6 2h1M6 17h1M13 18h1" />
<path stroke="rgba(0,128,64,0.01568627450980392)" d="M14 1h1M14 18h1" />
<path stroke="rgba(28,85,57,0.03529411764705882)" d="M7 2h1M7 17h1" />
<path stroke="#24964a" d="M11 2h2M8 3h9M8 4h11M8 5h11M8 6h11M8 7h11M8 8h11M8 11h11M8 12h11M8 13h11M8 14h11M8 15h11M8 16h9M11 17h2" />
<path stroke="#043e17" d="M4 5h2M3 6h1M3 13h1M4 14h2" />
<path stroke="#1f9947" d="M4 6h1M4 13h1" />
<path stroke="#021c0a" d="M5 6h1M5 13h1" />
<path stroke="rgba(22,100,44,0.09019607843137255)" d="M9 18h1" />
</svg>