<svg xmlns="http://www.w3.org/2000/svg" viewBox="0 -0.5 20 20" shape-rendering="crispEdges">
<metadata>Made with Pixels to Svg https://codepen.io/shshaw/pen/XbxvNj</metadata>
<path stroke="#242424" d="M5 1h1" />
<path stroke="#212121" d="M6 1h5M5 2h1M7 2h4M12 2h1M3 3h5M11 3h2M2 4h1M5 4h2M11 4h2M12 5h1M1 6h2M0 7h4M9 7h2M1 8h3M8 8h4M0 9h13M0 10h13M0 11h1M7 11h5M0 12h4M8 12h3M0 13h5M12 13h1M1 14h3M10 14h2M1 15h3M9 15h3M2 16h1M9 16h3M4 17h7M5 18h5" />
<path stroke="#232323" d="M4 2h1M11 2h1M1 4h1M0 6h1M0 8h1M12 14h1M12 15h1M12 16h1M12 17h1" />
<path stroke="#222222" d="M6 2h1M2 3h1M1 5h1M11 17h1M10 18h1" />
<path stroke="#813d3d" d="M13 2h1M14 3h3M16 4h2M18 5h1M18 14h1M17 15h1M14 16h3M13 17h1" />
<path stroke="#e74949" d="M8 3h1M7 4h1M2 5h1M3 6h1M4 7h1M11 7h1M4 8h1M12 8h1M9 14h1M8 15h1M8 16h1" />
<path stroke="#e94b4b" d="M9 3h1" />
<path stroke="#222121" d="M10 3h1M4 4h1M10 4h1M11 5h1M8 7h1M7 8h1M4 14h1M4 15h1M3 16h1" />
<path stroke="#772d2d" d="M13 3h1" />
<path stroke="#e84949" d="M3 4h1M8 4h1M3 5h7M4 6h9M5 7h2M12 7h1M5 8h1M1 11h6M12 11h1M4 12h4M11 12h2M5 13h7M6 14h3M6 15h2M5 16h3" />
<path stroke="#e94949" d="M9 4h1M10 5h1M7 7h1M6 8h1M5 14h1M5 15h1M4 16h1" />
<path stroke="#782e2e" d="M13 4h1M13 5h1M16 5h1M13 7h1M13 8h1M16 14h1" />
<path stroke="#772c2c" d="M14 4h2M17 6h1M14 7h4M14 8h5M13 9h6M13 10h6M13 11h6M13 12h6M13 13h1M17 13h2M13 14h1M13 15h3" />
<path stroke="#301010" d="M14 5h2M16 6h1M16 13h1M14 14h2" />
<path stroke="#823f3f" d="M17 5h1" />
<path stroke="#792e2e" d="M13 6h1" />
<path stroke="#0e0404" d="M14 6h1M14 13h1" />
<path stroke="#ad4545" d="M15 6h1M15 13h1" />
<path stroke="#782c2c" d="M18 6h1M18 7h1M13 16h1" />
<path stroke="#000000" d="M19 7h1M19 12h1" />
<path stroke="#854040" d="M17 14h1" />
<path stroke="#843f3f" d="M16 15h1" />
</svg>