<svg xmlns="http://www.w3.org/2000/svg" viewBox="0 -0.5 480 270" shape-rendering="crispEdges">
<metadata>Made with Pixels to Svg https://codepen.io/shshaw/pen/XbxvNj</metadata>
<path stroke="#0e9747" d="M0 0h480M0 1h480M0 2h480M0 3h480M0 4h480M0 5h480M0 6h480M0 7h480M0 8h480M0 9h480M0 10h480M0 11h480M0 12h480M0 13h480M0 14h480M0 15h480M0 16h21M460 16h20M0 17h21M22 17h218M241 17h218M460 17h20M0 18h21M22 18h218M241 18h218M460 18h20M0 19h21M22 19h218M241 19h218M460 19h20M0 20h21M22 20h218M241 20h218M460 20h20M0 21h21M22 21h218M241 21h218M460 21h20M0 22h21M22 22h218M241 22h218M460 22h20M0 23h21M22 23h218M241 23h218M460 23h20M0 24h21M22 24h218M241 24h218M460 24h20M0 25h21M22 25h218M241 25h218M460 25h20M0 26h21M22 26h218M241 26h218M460 26h20M0 27h21M22 27h218M241 27h218M460 27h20M0 28h21M22 28h218M241 28h218M460 28h20M0 29h21M22 29h218M241 29h218M460 29h20M0 30h21M22 30h218M241 30h218M460 30h20M0 31h21M22 31h218M241 31h218M460 31h20M0 32h21M22 32h218M241 32h218M460 32h20M0 33h21M22 33h218M241 33h218M460 33h20M0 34h21M22 34h218M241 34h218M460 34h20M0 35h21M22 35h218M241 35h218M460 35h20M0 36h21M22 36h218M241 36h218M460 36h20M0 37h21M22 37h218M241 37h218M460 37h20M0 38h21M22 38h218M241 38h218M460 38h20M0 39h21M22 39h218M241 39h218M460 39h20M0 40h21M22 40h218M241 40h218M460 40h20M0 41h21M22 41h218M241 41h218M460 41h20M0 42h21M22 42h218M241 42h218M460 42h20M0 43h21M22 43h218M241 43h218M460 43h20M0 44h21M22 44h218M241 44h218M460 44h20M0 45h21M22 45h218M241 45h218M460 45h20M0 46h21M22 46h218M241 46h218M460 46h20M0 47h21M22 47h218M241 47h218M460 47h20M0 48h21M22 48h218M241 48h218M460 48h20M0 49h21M22 49h218M241 49h218M460 49h20M0 50h21M22 50h218M241 50h218M460 50h20M0 51h21M22 51h218M241 51h218M460 51h20M0 52h21M22 52h218M241 52h218M460 52h20M0 53h21M22 53h218M241 53h218M460 53h20M0 54h21M22 54h218M241 54h218M460 54h20M0 55h21M22 55h218M241 55h218M460 55h20M0 56h21M22 56h218M241 56h218M460 56h20M0 57h21M22 57h218M241 57h218M460 57h20M0 58h21M22 58h218M241 58h218M460 58h20M0 59h21M22 59h218M241 59h218M460 59h20M0 60h21M82 60h158M241 60h158M460 60h20M0 61h21M22 61h59M82 61h158M241 61h158M400 61h59M460 61h20M0 62h21M22 62h59M82 62h158M241 62h158M400 62h59M460 62h20M0 63h21M22 63h59M82 63h158M241 63h158M400 63h59M460 63h20M0 64h21M22 64h59M82 64h158M241 64h158M400 64h59M460 64h20M0 65h21M22 65h59M82 65h158M241 65h158M400 65h59M460 65h20M0 66h21M22 66h59M82 66h158M241 66h158M400 66h59M460 66h20M0 67h21M22 67h59M82 67h158M241 67h158M400 67h59M460 67h20M0 68h21M22 68h59M82 68h158M241 68h158M400 68h59M460 68h20M0 69h21M22 69h59M82 69h158M241 69h158M400 69h59M460 69h20M0 70h21M22 70h59M82 70h158M241 70h158M400 70h59M460 70h20M0 71h21M22 71h59M82 71h158M241 71h158M400 71h59M460 71h20M0 72h21M22 72h59M82 72h158M241 72h158M400 72h59M460 72h20M0 73h21M22 73h59M82 73h158M241 73h158M400 73h59M460 73h20M0 74h21M22 74h59M82 74h158M241 74h158M400 74h59M460 74h20M0 75h21M22 75h59M82 75h158M241 75h158M400 75h59M460 75h20M0 76h21M22 76h59M82 76h158M241 76h158M400 76h59M460 76h20M0 77h21M22 77h59M82 77h158M241 77h158M400 77h59M460 77h20M0 78h21M22 78h59M82 78h158M241 78h158M400 78h59M460 78h20M0 79h21M22 79h59M82 79h158M241 79h158M400 79h59M460 79h20M0 80h21M22 80h59M82 80h158M241 80h158M400 80h59M460 80h20M0 81h21M22 81h59M82 81h158M241 81h158M400 81h59M460 81h20M0 82h21M22 82h59M82 82h158M241 82h158M400 82h59M460 82h20M0 83h21M22 83h59M82 83h158M241 83h158M400 83h59M460 83h20M0 84h21M22 84h59M82 84h158M241 84h158M400 84h59M460 84h20M0 85h21M22 85h59M82 85h158M241 85h158M400 85h59M460 85h20M0 86h21M22 86h59M82 86h158M241 86h158M400 86h59M460 86h20M0 87h21M22 87h59M82 87h158M241 87h158M400 87h59M460 87h20M0 88h21M22 88h59M82 88h158M241 88h158M400 88h59M460 88h20M0 89h21M22 89h59M82 89h158M241 89h158M400 89h59M460 89h20M0 90h21M22 90h59M82 90h158M241 90h158M400 90h59M460 90h20M0 91h21M22 91h59M82 91h158M241 91h158M400 91h59M460 91h20M0 92h21M22 92h59M82 92h158M241 92h158M400 92h59M460 92h20M0 93h21M22 93h59M82 93h158M241 93h158M400 93h59M460 93h20M0 94h21M22 94h59M82 94h158M241 94h158M400 94h59M460 94h20M0 95h21M22 95h59M82 95h158M241 95h158M400 95h59M460 95h20M0 96h21M22 96h59M82 96h158M241 96h158M400 96h59M460 96h20M0 97h21M22 97h59M82 97h158M241 97h158M400 97h59M460 97h20M0 98h21M22 98h59M82 98h158M241 98h158M400 98h59M460 98h20M0 99h21M22 99h59M82 99h158M241 99h158M400 99h59M460 99h20M0 100h21M22 100h59M82 100h158M241 100h158M400 100h59M460 100h20M0 101h21M22 101h59M82 101h158M241 101h158M400 101h59M460 101h20M0 102h21M44 102h37M82 102h150M248 102h151M400 102h37M460 102h20M0 103h21M22 103h21M44 103h37M82 103h146M239 103h1M252 103h147M400 103h37M438 103h21M460 103h20M0 104h21M22 104h21M44 104h37M82 104h144M233 104h7M241 104h6M254 104h145M400 104h37M438 104h21M460 104h20M0 105h21M22 105h21M44 105h37M82 105h142M229 105h11M241 105h10M256 105h143M400 105h37M438 105h21M460 105h20M0 106h21M22 106h21M44 106h37M82 106h140M227 106h13M241 106h12M258 106h141M400 106h37M438 106h21M460 106h20M0 107h21M22 107h21M44 107h36M82 107h139M225 107h15M241 107h14M259 107h140M401 107h36M438 107h21M460 107h20M0 108h21M22 108h21M44 108h36M82 108h137M223 108h17M241 108h16M261 108h136M401 108h36M438 108h21M460 108h20M0 109h21M22 109h21M44 109h36M84 109h134M222 109h18M241 109h17M262 109h134M400 109h37M438 109h21M460 109h20M0 110h21M22 110h21M44 110h37M85 110h132M220 110h20M241 110h19M263 110h132M398 110h1M400 110h37M438 110h21M460 110h20M0 111h11M22 111h21M44 111h37M82 111h1M86 111h130M219 111h21M241 111h20M264 111h130M397 111h2M400 111h37M438 111h21M470 111h10M0 112h11M12 112h9M22 112h21M44 112h37M82 112h2M87 112h128M218 112h22M241 112h21M265 112h128M396 112h3M400 112h37M438 112h21M460 112h9M470 112h10M0 113h11M12 113h9M22 113h21M44 113h37M82 113h3M88 113h126M217 113h23M241 113h22M266 113h126M395 113h4M400 113h37M438 113h21M460 113h9M470 113h10M0 114h11M12 114h9M22 114h21M44 114h37M82 114h4M89 114h124M216 114h24M241 114h23M267 114h124M394 114h5M400 114h37M438 114h21M460 114h9M470 114h10M0 115h11M12 115h9M22 115h21M44 115h37M82 115h5M90 115h123M216 115h24M241 115h23M267 115h124M394 115h5M400 115h37M438 115h21M460 115h9M470 115h10M0 116h11M12 116h9M22 116h21M44 116h37M82 116h5M90 116h122M215 116h25M241 116h24M268 116h122M393 116h6M400 116h37M438 116h21M460 116h9M470 116h10M0 117h11M12 117h9M22 117h21M44 117h37M82 117h6M91 117h120M214 117h26M241 117h25M269 117h120M392 117h7M400 117h37M438 117h21M460 117h9M470 117h10M0 118h11M12 118h9M22 118h21M44 118h37M82 118h7M92 118h119M213 118h27M241 118h26M269 118h120M391 118h8M400 118h37M438 118h21M460 118h9M470 118h10M0 119h11M12 119h9M22 119h21M44 119h37M82 119h8M92 119h118M213 119h27M241 119h26M270 119h118M391 119h8M400 119h37M438 119h21M460 119h9M470 119h10M0 120h11M12 120h9M22 120h21M44 120h37M82 120h8M93 120h117M212 120h28M241 120h27M270 120h118M390 120h9M400 120h37M438 120h21M460 120h9M470 120h10M0 121h11M12 121h9M22 121h21M44 121h37M82 121h9M93 121h116M212 121h28M241 121h27M271 121h116M390 121h9M400 121h37M438 121h21M460 121h9M470 121h10M0 122h11M12 122h9M22 122h21M44 122h37M82 122h9M94 122h115M211 122h29M241 122h28M271 122h116M389 122h10M400 122h37M438 122h21M460 122h9M470 122h10M0 123h11M12 123h9M22 123h21M44 123h37M82 123h10M94 123h114M211 123h29M241 123h28M272 123h114M389 123h10M400 123h37M438 123h21M460 123h9M470 123h10M0 124h11M12 124h9M22 124h21M44 124h37M82 124h10M95 124h113M210 124h30M241 124h29M272 124h114M388 124h11M400 124h37M438 124h21M460 124h9M470 124h10M0 125h11M12 125h9M22 125h21M44 125h37M82 125h11M95 125h113M210 125h30M241 125h29M272 125h114M388 125h11M400 125h37M438 125h21M460 125h9M470 125h10M0 126h11M12 126h9M22 126h21M44 126h37M82 126h11M95 126h113M210 126h30M241 126h29M272 126h114M388 126h11M400 126h37M438 126h21M460 126h9M470 126h10M0 127h11M12 127h9M22 127h21M44 127h37M82 127h11M95 127h112M209 127h31M241 127h30M273 127h112M387 127h12M400 127h37M438 127h21M460 127h9M470 127h10M0 128h11M12 128h9M22 128h21M44 128h37M82 128h12M96 128h111M209 128h31M241 128h30M273 128h112M387 128h12M400 128h37M438 128h21M460 128h9M470 128h10M0 129h11M12 129h9M22 129h21M44 129h37M82 129h12M96 129h111M209 129h31M241 129h30M273 129h112M387 129h12M400 129h37M438 129h21M460 129h9M470 129h10M0 130h11M12 130h9M22 130h21M44 130h37M82 130h12M96 130h111M209 130h31M241 130h30M273 130h112M387 130h12M400 130h37M438 130h21M460 130h9M470 130h10M0 131h11M12 131h9M22 131h21M44 131h37M82 131h12M96 131h111M209 131h31M241 131h30M273 131h112M387 131h12M400 131h37M438 131h21M460 131h9M470 131h10M0 132h11M12 132h9M22 132h21M44 132h37M82 132h12M96 132h111M209 132h31M241 132h30M273 132h112M387 132h12M400 132h37M438 132h21M460 132h9M470 132h10M0 133h11M12 133h9M22 133h21M44 133h37M82 133h12M96 133h111M209 133h31M241 133h30M273 133h112M387 133h12M400 133h37M438 133h21M460 133h9M470 133h10M0 134h11M12 134h9M22 134h21M44 134h37M82 134h12M96 134h111M208 134h32M241 134h31M273 134h112M386 134h13M400 134h37M438 134h21M460 134h9M470 134h10M0 135h11M12 135h9M22 135h21M44 135h37M82 135h13M96 135h111M208 135h32M241 135h30M273 135h112M387 135h12M400 135h37M438 135h21M460 135h9M470 135h10M0 136h11M12 136h9M22 136h21M44 136h37M82 136h12M96 136h111M209 136h31M241 136h30M273 136h112M387 136h12M400 136h37M438 136h21M460 136h9M470 136h10M0 137h11M12 137h9M22 137h21M44 137h37M82 137h12M96 137h111M209 137h31M241 137h30M273 137h112M387 137h12M400 137h37M438 137h21M460 137h9M470 137h10M0 138h11M12 138h9M22 138h21M44 138h37M82 138h12M96 138h111M209 138h31M241 138h30M273 138h112M387 138h12M400 138h37M438 138h21M460 138h9M470 138h10M0 139h11M12 139h9M22 139h21M44 139h37M82 139h12M96 139h111M209 139h31M241 139h30M273 139h112M387 139h12M400 139h37M438 139h21M460 139h9M470 139h10M0 140h11M12 140h9M22 140h21M44 140h37M82 140h12M96 140h111M209 140h31M241 140h30M273 140h112M387 140h12M400 140h37M438 140h21M460 140h9M470 140h10M0 141h11M12 141h9M22 141h21M44 141h37M82 141h12M96 141h111M209 141h31M241 141h30M273 141h112M387 141h12M400 141h37M438 141h21M460 141h9M470 141h10M0 142h11M12 142h9M22 142h21M44 142h37M82 142h12M96 142h111M209 142h31M241 142h30M273 142h112M387 142h12M400 142h37M438 142h21M460 142h9M470 142h10M0 143h11M12 143h9M22 143h21M44 143h37M82 143h12M96 143h112M210 143h30M241 143h29M272 143h114M388 143h11M400 143h37M438 143h21M460 143h9M470 143h10M0 144h11M12 144h9M22 144h21M44 144h37M82 144h11M95 144h113M210 144h30M241 144h29M272 144h114M388 144h11M400 144h37M438 144h21M460 144h9M470 144h10M0 145h11M12 145h9M22 145h21M44 145h37M82 145h11M95 145h113M210 145h30M241 145h29M272 145h114M388 145h11M400 145h37M438 145h21M460 145h9M470 145h10M0 146h11M12 146h9M22 146h21M44 146h37M82 146h11M95 146h113M211 146h29M241 146h28M272 146h114M389 146h10M400 146h37M438 146h21M460 146h9M470 146h10M0 147h11M12 147h9M22 147h21M44 147h37M82 147h10M95 147h114M211 147h29M241 147h28M271 147h116M389 147h10M400 147h37M438 147h21M460 147h9M470 147h10M0 148h11M12 148h9M22 148h21M44 148h37M82 148h10M94 148h115M212 148h28M241 148h27M271 148h116M390 148h9M400 148h37M438 148h21M460 148h9M470 148h10M0 149h11M12 149h9M22 149h21M44 149h37M82 149h9M94 149h116M212 149h28M241 149h27M270 149h118M390 149h9M400 149h37M438 149h21M460 149h9M470 149h10M0 150h11M12 150h9M22 150h21M44 150h37M82 150h9M93 150h117M213 150h27M241 150h26M270 150h118M391 150h8M400 150h37M438 150h21M460 150h9M470 150h10M0 151h11M12 151h9M22 151h21M44 151h37M82 151h8M93 151h118M213 151h27M241 151h26M269 151h120M391 151h8M400 151h37M438 151h21M460 151h9M470 151h10M0 152h11M12 152h9M22 152h21M44 152h37M82 152h8M92 152h119M214 152h26M241 152h25M269 152h120M392 152h7M400 152h37M438 152h21M460 152h9M470 152h10M0 153h11M12 153h9M22 153h21M44 153h37M82 153h7M92 153h120M215 153h25M241 153h24M268 153h122M393 153h6M400 153h37M438 153h21M460 153h9M470 153h10M0 154h11M12 154h9M22 154h21M44 154h37M82 154h6M91 154h122M216 154h24M241 154h23M267 154h124M394 154h5M400 154h37M438 154h21M460 154h9M470 154h10M0 155h11M12 155h9M22 155h21M44 155h37M82 155h5M90 155h123M216 155h24M241 155h23M267 155h124M394 155h5M400 155h37M438 155h21M460 155h9M470 155h10M0 156h11M12 156h9M22 156h21M44 156h37M82 156h5M90 156h124M217 156h23M241 156h22M266 156h126M395 156h4M400 156h37M438 156h21M460 156h9M470 156h10M0 157h11M12 157h9M22 157h21M44 157h37M82 157h4M89 157h126M218 157h22M241 157h21M265 157h128M396 157h3M400 157h37M438 157h21M460 157h9M470 157h10M0 158h11M12 158h9M22 158h21M44 158h37M82 158h3M88 158h128M219 158h21M241 158h20M264 158h130M397 158h2M400 158h37M438 158h21M460 158h9M470 158h10M0 159h11M22 159h21M44 159h37M82 159h2M87 159h130M220 159h20M241 159h19M263 159h132M398 159h1M400 159h37M438 159h21M470 159h10M0 160h21M22 160h21M44 160h37M82 160h1M86 160h132M222 160h18M241 160h17M262 160h134M400 160h37M438 160h21M460 160h20M0 161h21M22 161h21M44 161h37M85 161h134M223 161h17M241 161h16M261 161h136M400 161h37M438 161h21M460 161h20M0 162h21M22 162h21M44 162h37M84 162h137M225 162h15M241 162h14M259 162h140M401 162h36M438 162h21M460 162h20M0 163h21M22 163h21M44 163h36M82 163h140M227 163h13M241 163h12M258 163h141M401 163h36M438 163h21M460 163h20M0 164h21M22 164h21M44 164h37M82 164h142M229 164h11M241 164h10M256 164h143M400 164h37M438 164h21M460 164h20M0 165h21M22 165h21M44 165h37M82 165h144M232 165h8M241 165h7M254 165h145M400 165h37M438 165h21M460 165h20M0 166h21M22 166h21M44 166h37M82 166h146M239 166h1M252 166h147M400 166h37M438 166h21M460 166h20M0 167h21M44 167h37M82 167h150M248 167h151M400 167h37M460 167h20M0 168h21M22 168h59M82 168h158M241 168h158M400 168h59M460 168h20M0 169h21M22 169h59M82 169h158M241 169h158M400 169h59M460 169h20M0 170h21M22 170h59M82 170h158M241 170h158M400 170h59M460 170h20M0 171h21M22 171h59M82 171h158M241 171h158M400 171h59M460 171h20M0 172h21M22 172h59M82 172h158M241 172h158M400 172h59M460 172h20M0 173h21M22 173h59M82 173h158M241 173h158M400 173h59M460 173h20M0 174h21M22 174h59M82 174h158M241 174h158M400 174h59M460 174h20M0 175h21M22 175h59M82 175h158M241 175h158M400 175h59M460 175h20M0 176h21M22 176h59M82 176h158M241 176h158M400 176h59M460 176h20M0 177h21M22 177h59M82 177h158M241 177h158M400 177h59M460 177h20M0 178h21M22 178h59M82 178h158M241 178h158M400 178h59M460 178h20M0 179h21M22 179h59M82 179h158M241 179h158M400 179h59M460 179h20M0 180h21M22 180h59M82 180h158M241 180h158M400 180h59M460 180h20M0 181h21M22 181h59M82 181h158M241 181h158M400 181h59M460 181h20M0 182h21M22 182h59M82 182h158M241 182h158M400 182h59M460 182h20M0 183h21M22 183h59M82 183h158M241 183h158M400 183h59M460 183h20M0 184h21M22 184h59M82 184h158M241 184h158M400 184h59M460 184h20M0 185h21M22 185h59M82 185h158M241 185h158M400 185h59M460 185h20M0 186h21M22 186h59M82 186h158M241 186h158M400 186h59M460 186h20M0 187h21M22 187h59M82 187h158M241 187h158M400 187h59M460 187h20M0 188h21M22 188h59M82 188h158M241 188h158M400 188h59M460 188h20M0 189h21M22 189h59M82 189h158M241 189h158M400 189h59M460 189h20M0 190h21M22 190h59M82 190h158M241 190h158M400 190h59M460 190h20M0 191h21M22 191h59M82 191h158M241 191h158M400 191h59M460 191h20M0 192h21M22 192h59M82 192h158M241 192h158M400 192h59M460 192h20M0 193h21M22 193h59M82 193h158M241 193h158M400 193h59M460 193h20M0 194h21M22 194h59M82 194h158M241 194h158M400 194h59M460 194h20M0 195h21M22 195h59M82 195h158M241 195h158M400 195h59M460 195h20M0 196h21M22 196h59M82 196h158M241 196h158M400 196h59M460 196h20M0 197h21M22 197h59M82 197h158M241 197h158M400 197h59M460 197h20M0 198h21M22 198h59M82 198h158M241 198h158M400 198h59M460 198h20M0 199h21M22 199h59M82 199h158M241 199h158M400 199h59M460 199h20M0 200h21M22 200h59M82 200h158M241 200h158M400 200h59M460 200h20M0 201h21M22 201h59M82 201h158M241 201h158M400 201h59M460 201h20M0 202h21M22 202h59M82 202h158M241 202h158M400 202h59M460 202h20M0 203h21M22 203h59M82 203h158M241 203h158M400 203h59M460 203h20M0 204h21M22 204h59M82 204h158M241 204h158M400 204h59M460 204h20M0 205h21M22 205h59M82 205h158M241 205h158M400 205h59M460 205h20M0 206h21M22 206h59M82 206h158M241 206h158M400 206h59M460 206h20M0 207h21M22 207h59M82 207h158M241 207h158M400 207h59M460 207h20M0 208h21M22 208h59M82 208h158M241 208h158M400 208h59M460 208h20M0 209h21M22 209h59M82 209h158M241 209h158M400 209h59M460 209h20M0 210h21M82 210h158M241 210h158M460 210h20M0 211h21M22 211h218M241 211h218M460 211h20M0 212h21M22 212h218M241 212h218M460 212h20M0 213h21M22 213h218M241 213h218M460 213h20M0 214h21M22 214h218M241 214h218M460 214h20M0 215h21M22 215h218M241 215h218M460 215h20M0 216h21M22 216h218M241 216h218M460 216h20M0 217h21M22 217h218M241 217h218M460 217h20M0 218h21M22 218h218M241 218h218M460 218h20M0 219h21M22 219h218M241 219h218M460 219h20M0 220h21M22 220h218M241 220h218M460 220h20M0 221h21M22 221h218M241 221h218M460 221h20M0 222h21M22 222h218M241 222h218M460 222h20M0 223h21M22 223h218M241 223h218M460 223h20M0 224h21M22 224h218M241 224h218M460 224h20M0 225h21M22 225h218M241 225h218M460 225h20M0 226h21M22 226h218M241 226h218M460 226h20M0 227h21M22 227h218M241 227h218M460 227h20M0 228h21M22 228h218M241 228h218M460 228h20M0 229h21M22 229h218M241 229h218M460 229h20M0 230h21M22 230h218M241 230h218M460 230h20M0 231h21M22 231h218M241 231h218M460 231h20M0 232h21M22 232h218M241 232h218M460 232h20M0 233h21M22 233h218M241 233h218M460 233h20M0 234h21M22 234h218M241 234h218M460 234h20M0 235h21M22 235h218M241 235h218M460 235h20M0 236h21M22 236h218M241 236h218M460 236h20M0 237h21M22 237h218M241 237h218M460 237h20M0 238h21M22 238h218M241 238h218M460 238h20M0 239h21M22 239h218M241 239h218M460 239h20M0 240h21M22 240h218M241 240h218M460 240h20M0 241h21M22 241h218M241 241h218M460 241h20M0 242h21M22 242h218M241 242h218M460 242h20M0 243h21M22 243h218M241 243h218M460 243h20M0 244h21M22 244h218M241 244h218M460 244h20M0 245h21M22 245h218M241 245h218M460 245h20M0 246h21M22 246h218M241 246h218M460 246h20M0 247h21M22 247h218M241 247h218M460 247h20M0 248h21M22 248h218M241 248h218M460 248h20M0 249h21M22 249h218M241 249h218M460 249h20M0 250h21M22 250h218M241 250h218M460 250h20M0 251h21M22 251h218M241 251h218M460 251h20M0 252h21M22 252h218M241 252h218M460 252h20M0 253h21M22 253h218M241 253h218M460 253h20M0 254h21M460 254h20M0 255h240M241 255h239M0 256h480M0 257h480M0 258h480M0 259h480M0 260h480M0 261h480M0 262h480M0 263h480M0 264h480M0 265h480M0 266h480M0 267h480M0 268h480M0 269h480" />
<path stroke="#ffffff" d="M21 16h439M21 17h1M240 17h1M459 17h1M21 18h1M240 18h1M459 18h1M21 19h1M240 19h1M459 19h1M21 20h1M240 20h1M459 20h1M21 21h1M240 21h1M459 21h1M21 22h1M240 22h1M459 22h1M21 23h1M240 23h1M459 23h1M21 24h1M240 24h1M459 24h1M21 25h1M240 25h1M459 25h1M21 26h1M240 26h1M459 26h1M21 27h1M240 27h1M459 27h1M21 28h1M240 28h1M459 28h1M21 29h1M240 29h1M459 29h1M21 30h1M240 30h1M459 30h1M21 31h1M240 31h1M459 31h1M21 32h1M240 32h1M459 32h1M21 33h1M240 33h1M459 33h1M21 34h1M240 34h1M459 34h1M21 35h1M240 35h1M459 35h1M21 36h1M240 36h1M459 36h1M21 37h1M240 37h1M459 37h1M21 38h1M240 38h1M459 38h1M21 39h1M240 39h1M459 39h1M21 40h1M240 40h1M459 40h1M21 41h1M240 41h1M459 41h1M21 42h1M240 42h1M459 42h1M21 43h1M240 43h1M459 43h1M21 44h1M240 44h1M459 44h1M21 45h1M240 45h1M459 45h1M21 46h1M240 46h1M459 46h1M21 47h1M240 47h1M459 47h1M21 48h1M240 48h1M459 48h1M21 49h1M240 49h1M459 49h1M21 50h1M240 50h1M459 50h1M21 51h1M240 51h1M459 51h1M21 52h1M240 52h1M459 52h1M21 53h1M240 53h1M459 53h1M21 54h1M240 54h1M459 54h1M21 55h1M240 55h1M459 55h1M21 56h1M240 56h1M459 56h1M21 57h1M240 57h1M459 57h1M21 58h1M240 58h1M459 58h1M21 59h1M240 59h1M459 59h1M21 60h61M240 60h1M399 60h61M21 61h1M81 61h1M240 61h1M399 61h1M459 61h1M21 62h1M81 62h1M240 62h1M399 62h1M459 62h1M21 63h1M81 63h1M240 63h1M399 63h1M459 63h1M21 64h1M81 64h1M240 64h1M399 64h1M459 64h1M21 65h1M81 65h1M240 65h1M399 65h1M459 65h1M21 66h1M81 66h1M240 66h1M399 66h1M459 66h1M21 67h1M81 67h1M240 67h1M399 67h1M459 67h1M21 68h1M81 68h1M240 68h1M399 68h1M459 68h1M21 69h1M81 69h1M240 69h1M399 69h1M459 69h1M21 70h1M81 70h1M240 70h1M399 70h1M459 70h1M21 71h1M81 71h1M240 71h1M399 71h1M459 71h1M21 72h1M81 72h1M240 72h1M399 72h1M459 72h1M21 73h1M81 73h1M240 73h1M399 73h1M459 73h1M21 74h1M81 74h1M240 74h1M399 74h1M459 74h1M21 75h1M81 75h1M240 75h1M399 75h1M459 75h1M21 76h1M81 76h1M240 76h1M399 76h1M459 76h1M21 77h1M81 77h1M240 77h1M399 77h1M459 77h1M21 78h1M81 78h1M240 78h1M399 78h1M459 78h1M21 79h1M81 79h1M240 79h1M399 79h1M459 79h1M21 80h1M81 80h1M240 80h1M399 80h1M459 80h1M21 81h1M81 81h1M240 81h1M399 81h1M459 81h1M21 82h1M81 82h1M240 82h1M399 82h1M459 82h1M21 83h1M81 83h1M240 83h1M399 83h1M459 83h1M21 84h1M81 84h1M240 84h1M399 84h1M459 84h1M21 85h1M81 85h1M240 85h1M399 85h1M459 85h1M21 86h1M81 86h1M240 86h1M399 86h1M459 86h1M21 87h1M81 87h1M240 87h1M399 87h1M459 87h1M21 88h1M81 88h1M240 88h1M399 88h1M459 88h1M21 89h1M81 89h1M240 89h1M399 89h1M459 89h1M21 90h1M81 90h1M240 90h1M399 90h1M459 90h1M21 91h1M81 91h1M240 91h1M399 91h1M459 91h1M21 92h1M81 92h1M240 92h1M399 92h1M459 92h1M21 93h1M81 93h1M240 93h1M399 93h1M459 93h1M21 94h1M81 94h1M240 94h1M399 94h1M459 94h1M21 95h1M81 95h1M240 95h1M399 95h1M459 95h1M21 96h1M81 96h1M240 96h1M399 96h1M459 96h1M21 97h1M81 97h1M240 97h1M399 97h1M459 97h1M21 98h1M81 98h1M240 98h1M399 98h1M459 98h1M21 99h1M81 99h1M240 99h1M399 99h1M459 99h1M21 100h1M81 100h1M240 100h1M399 100h1M459 100h1M21 101h1M81 101h1M240 101h1M399 101h1M459 101h1M21 102h23M81 102h1M239 102h2M399 102h1M437 102h23M21 103h1M43 103h1M81 103h1M240 103h1M399 103h1M437 103h1M459 103h1M21 104h1M43 104h1M81 104h1M240 104h1M399 104h1M437 104h1M459 104h1M21 105h1M43 105h1M81 105h1M240 105h1M399 105h1M437 105h1M459 105h1M21 106h1M43 106h1M81 106h1M240 106h1M399 106h1M437 106h1M459 106h1M21 107h1M43 107h1M81 107h1M240 107h1M399 107h1M437 107h1M459 107h1M21 108h1M43 108h1M81 108h1M240 108h1M399 108h1M437 108h1M459 108h1M21 109h1M43 109h1M81 109h1M240 109h1M399 109h1M437 109h1M459 109h1M21 110h1M43 110h1M81 110h1M240 110h1M399 110h1M437 110h1M459 110h1M11 111h11M43 111h1M81 111h1M240 111h1M399 111h1M437 111h1M459 111h11M11 112h1M21 112h1M43 112h1M81 112h1M240 112h1M399 112h1M437 112h1M459 112h1M469 112h1M11 113h1M21 113h1M43 113h1M81 113h1M240 113h1M399 113h1M437 113h1M459 113h1M469 113h1M11 114h1M21 114h1M43 114h1M81 114h1M240 114h1M399 114h1M437 114h1M459 114h1M469 114h1M11 115h1M21 115h1M43 115h1M81 115h1M240 115h1M399 115h1M437 115h1M459 115h1M469 115h1M11 116h1M21 116h1M43 116h1M81 116h1M240 116h1M399 116h1M437 116h1M459 116h1M469 116h1M11 117h1M21 117h1M43 117h1M81 117h1M240 117h1M399 117h1M437 117h1M459 117h1M469 117h1M11 118h1M21 118h1M43 118h1M81 118h1M240 118h1M399 118h1M437 118h1M459 118h1M469 118h1M11 119h1M21 119h1M43 119h1M81 119h1M240 119h1M399 119h1M437 119h1M459 119h1M469 119h1M11 120h1M21 120h1M43 120h1M81 120h1M240 120h1M399 120h1M437 120h1M459 120h1M469 120h1M11 121h1M21 121h1M43 121h1M81 121h1M240 121h1M399 121h1M437 121h1M459 121h1M469 121h1M11 122h1M21 122h1M43 122h1M81 122h1M240 122h1M399 122h1M437 122h1M459 122h1M469 122h1M11 123h1M21 123h1M43 123h1M81 123h1M240 123h1M399 123h1M437 123h1M459 123h1M469 123h1M11 124h1M21 124h1M43 124h1M81 124h1M240 124h1M399 124h1M437 124h1M459 124h1M469 124h1M11 125h1M21 125h1M43 125h1M81 125h1M240 125h1M399 125h1M437 125h1M459 125h1M469 125h1M11 126h1M21 126h1M43 126h1M81 126h1M240 126h1M399 126h1M437 126h1M459 126h1M469 126h1M11 127h1M21 127h1M43 127h1M81 127h1M240 127h1M399 127h1M437 127h1M459 127h1M469 127h1M11 128h1M21 128h1M43 128h1M81 128h1M240 128h1M399 128h1M437 128h1M459 128h1M469 128h1M11 129h1M21 129h1M43 129h1M81 129h1M240 129h1M399 129h1M437 129h1M459 129h1M469 129h1M11 130h1M21 130h1M43 130h1M81 130h1M240 130h1M399 130h1M437 130h1M459 130h1M469 130h1M11 131h1M21 131h1M43 131h1M81 131h1M240 131h1M399 131h1M437 131h1M459 131h1M469 131h1M11 132h1M21 132h1M43 132h1M81 132h1M240 132h1M399 132h1M437 132h1M459 132h1M469 132h1M11 133h1M21 133h1M43 133h1M81 133h1M240 133h1M399 133h1M437 133h1M459 133h1M469 133h1M11 134h1M21 134h1M43 134h1M81 134h1M240 134h1M272 134h1M385 134h1M399 134h1M437 134h1M459 134h1M469 134h1M11 135h1M21 135h1M43 135h1M81 135h1M95 135h1M240 135h1M399 135h1M437 135h1M459 135h1M469 135h1M11 136h1M21 136h1M43 136h1M81 136h1M240 136h1M399 136h1M437 136h1M459 136h1M469 136h1M11 137h1M21 137h1M43 137h1M81 137h1M240 137h1M399 137h1M437 137h1M459 137h1M469 137h1M11 138h1M21 138h1M43 138h1M81 138h1M240 138h1M399 138h1M437 138h1M459 138h1M469 138h1M11 139h1M21 139h1M43 139h1M81 139h1M240 139h1M399 139h1M437 139h1M459 139h1M469 139h1M11 140h1M21 140h1M43 140h1M81 140h1M240 140h1M399 140h1M437 140h1M459 140h1M469 140h1M11 141h1M21 141h1M43 141h1M81 141h1M240 141h1M399 141h1M437 141h1M459 141h1M469 141h1M11 142h1M21 142h1M43 142h1M81 142h1M240 142h1M399 142h1M437 142h1M459 142h1M469 142h1M11 143h1M21 143h1M43 143h1M81 143h1M240 143h1M399 143h1M437 143h1M459 143h1M469 143h1M11 144h1M21 144h1M43 144h1M81 144h1M240 144h1M399 144h1M437 144h1M459 144h1M469 144h1M11 145h1M21 145h1M43 145h1M81 145h1M240 145h1M399 145h1M437 145h1M459 145h1M469 145h1M11 146h1M21 146h1M43 146h1M81 146h1M240 146h1M399 146h1M437 146h1M459 146h1M469 146h1M11 147h1M21 147h1M43 147h1M81 147h1M240 147h1M399 147h1M437 147h1M459 147h1M469 147h1M11 148h1M21 148h1M43 148h1M81 148h1M240 148h1M399 148h1M437 148h1M459 148h1M469 148h1M11 149h1M21 149h1M43 149h1M81 149h1M240 149h1M399 149h1M437 149h1M459 149h1M469 149h1M11 150h1M21 150h1M43 150h1M81 150h1M240 150h1M399 150h1M437 150h1M459 150h1M469 150h1M11 151h1M21 151h1M43 151h1M81 151h1M240 151h1M399 151h1M437 151h1M459 151h1M469 151h1M11 152h1M21 152h1M43 152h1M81 152h1M240 152h1M399 152h1M437 152h1M459 152h1M469 152h1M11 153h1M21 153h1M43 153h1M81 153h1M240 153h1M399 153h1M437 153h1M459 153h1M469 153h1M11 154h1M21 154h1M43 154h1M81 154h1M240 154h1M399 154h1M437 154h1M459 154h1M469 154h1M11 155h1M21 155h1M43 155h1M81 155h1M240 155h1M399 155h1M437 155h1M459 155h1M469 155h1M11 156h1M21 156h1M43 156h1M81 156h1M240 156h1M399 156h1M437 156h1M459 156h1M469 156h1M11 157h1M21 157h1M43 157h1M81 157h1M240 157h1M399 157h1M437 157h1M459 157h1M469 157h1M11 158h1M21 158h1M43 158h1M81 158h1M240 158h1M399 158h1M437 158h1M459 158h1M469 158h1M11 159h11M43 159h1M81 159h1M240 159h1M399 159h1M437 159h1M459 159h11M21 160h1M43 160h1M81 160h1M240 160h1M399 160h1M437 160h1M459 160h1M21 161h1M43 161h1M81 161h1M240 161h1M399 161h1M437 161h1M459 161h1M21 162h1M43 162h1M81 162h1M240 162h1M399 162h1M437 162h1M459 162h1M21 163h1M43 163h1M81 163h1M240 163h1M399 163h1M437 163h1M459 163h1M21 164h1M43 164h1M81 164h1M240 164h1M399 164h1M437 164h1M459 164h1M21 165h1M43 165h1M81 165h1M240 165h1M399 165h1M437 165h1M459 165h1M21 166h1M43 166h1M81 166h1M240 166h1M399 166h1M437 166h1M459 166h1M21 167h23M81 167h1M239 167h2M399 167h1M437 167h23M21 168h1M81 168h1M240 168h1M399 168h1M459 168h1M21 169h1M81 169h1M240 169h1M399 169h1M459 169h1M21 170h1M81 170h1M240 170h1M399 170h1M459 170h1M21 171h1M81 171h1M240 171h1M399 171h1M459 171h1M21 172h1M81 172h1M240 172h1M399 172h1M459 172h1M21 173h1M81 173h1M240 173h1M399 173h1M459 173h1M21 174h1M81 174h1M240 174h1M399 174h1M459 174h1M21 175h1M81 175h1M240 175h1M399 175h1M459 175h1M21 176h1M81 176h1M240 176h1M399 176h1M459 176h1M21 177h1M81 177h1M240 177h1M399 177h1M459 177h1M21 178h1M81 178h1M240 178h1M399 178h1M459 178h1M21 179h1M81 179h1M240 179h1M399 179h1M459 179h1M21 180h1M81 180h1M240 180h1M399 180h1M459 180h1M21 181h1M81 181h1M240 181h1M399 181h1M459 181h1M21 182h1M81 182h1M240 182h1M399 182h1M459 182h1M21 183h1M81 183h1M240 183h1M399 183h1M459 183h1M21 184h1M81 184h1M240 184h1M399 184h1M459 184h1M21 185h1M81 185h1M240 185h1M399 185h1M459 185h1M21 186h1M81 186h1M240 186h1M399 186h1M459 186h1M21 187h1M81 187h1M240 187h1M399 187h1M459 187h1M21 188h1M81 188h1M240 188h1M399 188h1M459 188h1M21 189h1M81 189h1M240 189h1M399 189h1M459 189h1M21 190h1M81 190h1M240 190h1M399 190h1M459 190h1M21 191h1M81 191h1M240 191h1M399 191h1M459 191h1M21 192h1M81 192h1M240 192h1M399 192h1M459 192h1M21 193h1M81 193h1M240 193h1M399 193h1M459 193h1M21 194h1M81 194h1M240 194h1M399 194h1M459 194h1M21 195h1M81 195h1M240 195h1M399 195h1M459 195h1M21 196h1M81 196h1M240 196h1M399 196h1M459 196h1M21 197h1M81 197h1M240 197h1M399 197h1M459 197h1M21 198h1M81 198h1M240 198h1M399 198h1M459 198h1M21 199h1M81 199h1M240 199h1M399 199h1M459 199h1M21 200h1M81 200h1M240 200h1M399 200h1M459 200h1M21 201h1M81 201h1M240 201h1M399 201h1M459 201h1M21 202h1M81 202h1M240 202h1M399 202h1M459 202h1M21 203h1M81 203h1M240 203h1M399 203h1M459 203h1M21 204h1M81 204h1M240 204h1M399 204h1M459 204h1M21 205h1M81 205h1M240 205h1M399 205h1M459 205h1M21 206h1M81 206h1M240 206h1M399 206h1M459 206h1M21 207h1M81 207h1M240 207h1M399 207h1M459 207h1M21 208h1M81 208h1M240 208h1M399 208h1M459 208h1M21 209h1M81 209h1M240 209h1M399 209h1M459 209h1M21 210h61M240 210h1M399 210h61M21 211h1M240 211h1M459 211h1M21 212h1M240 212h1M459 212h1M21 213h1M240 213h1M459 213h1M21 214h1M240 214h1M459 214h1M21 215h1M240 215h1M459 215h1M21 216h1M240 216h1M459 216h1M21 217h1M240 217h1M459 217h1M21 218h1M240 218h1M459 218h1M21 219h1M240 219h1M459 219h1M21 220h1M240 220h1M459 220h1M21 221h1M240 221h1M459 221h1M21 222h1M240 222h1M459 222h1M21 223h1M240 223h1M459 223h1M21 224h1M240 224h1M459 224h1M21 225h1M240 225h1M459 225h1M21 226h1M240 226h1M459 226h1M21 227h1M240 227h1M459 227h1M21 228h1M240 228h1M459 228h1M21 229h1M240 229h1M459 229h1M21 230h1M240 230h1M459 230h1M21 231h1M240 231h1M459 231h1M21 232h1M240 232h1M459 232h1M21 233h1M240 233h1M459 233h1M21 234h1M240 234h1M459 234h1M21 235h1M240 235h1M459 235h1M21 236h1M240 236h1M459 236h1M21 237h1M240 237h1M459 237h1M21 238h1M240 238h1M459 238h1M21 239h1M240 239h1M459 239h1M21 240h1M240 240h1M459 240h1M21 241h1M240 241h1M459 241h1M21 242h1M240 242h1M459 242h1M21 243h1M240 243h1M459 243h1M21 244h1M240 244h1M459 244h1M21 245h1M240 245h1M459 245h1M21 246h1M240 246h1M459 246h1M21 247h1M240 247h1M459 247h1M21 248h1M240 248h1M459 248h1M21 249h1M240 249h1M459 249h1M21 250h1M240 250h1M459 250h1M21 251h1M240 251h1M459 251h1M21 252h1M240 252h1M459 252h1M21 253h1M240 253h1M459 253h1M21 254h439M240 255h1" />
<path stroke="#2ea560" d="M232 102h1M247 102h1M207 127h1M272 127h1M385 127h1M95 128h1M207 142h1M272 142h1M385 142h1M95 143h1M242 166h1M232 167h1M247 167h1" />
<path stroke="#62bb87" d="M233 102h1M246 102h1M207 128h1M272 128h1M385 128h1M95 129h1M207 141h1M272 141h1M385 141h1M95 142h1M235 166h1M244 166h1" />
<path stroke="#8fcea9" d="M234 102h1M245 102h1M227 104h1M252 104h1M272 140h1M385 140h1M95 141h1M227 165h1M252 165h1" />
<path stroke="#b2dec5" d="M235 102h1M214 154h1M265 154h1M392 154h1M88 155h1" />
<path stroke="#d1ebdc" d="M236 102h1M229 104h1M272 131h1M385 131h1M95 132h1" />
<path stroke="#e5f4ec" d="M237 102h1M242 102h1M261 110h1M396 110h1M84 111h1M208 127h1M271 127h1M386 127h1M94 128h1M208 142h1M251 165h1M232 166h1M247 166h1" />
<path stroke="#f4faf6" d="M238 102h1M241 102h1M238 167h1" />
<path stroke="#d2ebdc" d="M243 102h1M219 109h1M260 109h1M397 109h1M83 110h1M214 114h1M265 114h1M392 114h1M88 115h1M219 160h1" />
<path stroke="#b4dfc6" d="M244 102h1M207 130h1M272 130h1M385 130h1M95 131h1M207 139h1M272 139h1M385 139h1M95 140h1M235 167h1M244 167h1" />
<path stroke="#109848" d="M228 103h1M251 103h1M80 107h1M228 166h1M251 166h1" />
<path stroke="#4eb378" d="M229 103h1M250 103h1M229 166h1M250 166h1" />
<path stroke="#a0d6b6" d="M230 103h1M249 103h1" />
<path stroke="#e5f4eb" d="M231 103h1M248 103h1M251 104h1M212 117h1M267 117h1M390 117h1M90 118h1M271 142h1M386 142h1M94 143h1M212 152h1M267 152h1M390 152h1M90 153h1M222 162h1M257 162h1M228 165h1M231 166h1M248 166h1" />
<path stroke="#ecf7f1" d="M232 103h1M247 103h1M255 106h1M263 157h1M394 157h1M86 158h1M224 163h1M255 163h1" />
<path stroke="#b2dec4" d="M233 103h1M246 103h1" />
<path stroke="#89cca5" d="M234 103h1M245 103h1M254 106h1M268 120h1M389 120h1M91 121h1M211 149h1M225 163h1" />
<path stroke="#63bc88" d="M235 103h1M244 103h1M233 167h1M246 167h1" />
<path stroke="#3fac6d" d="M236 103h1M243 103h1" />
<path stroke="#28a25b" d="M237 103h1M242 103h1M226 104h1M214 113h1M265 113h1M392 113h1M88 114h1" />
<path stroke="#1a9c50" d="M238 103h1M241 103h1M400 108h1M80 109h1M208 133h1M208 136h1M221 160h1M258 160h1" />
<path stroke="#e4f3ea" d="M228 104h1M215 113h1M264 113h1M393 113h1M87 114h1M208 143h1M271 143h1M386 143h1M94 144h1" />
<path stroke="#7dc79b" d="M230 104h1M219 110h1M260 110h1M397 110h1M83 111h1M219 159h1" />
<path stroke="#3aaa69" d="M231 104h1M248 104h1" />
<path stroke="#0f9748" d="M232 104h1M247 104h1M215 115h1M264 115h1M393 115h1M87 116h1M215 154h1M264 154h1M393 154h1M87 155h1M400 162h1M80 163h1M400 163h1" />
<path stroke="#7cc69b" d="M249 104h1M260 159h1M397 159h1M83 160h1M230 165h1" />
<path stroke="#d0ebdb" d="M250 104h1M207 131h1M207 138h1M272 138h1M385 138h1M95 139h1" />
<path stroke="#29a35c" d="M253 104h1M209 121h1M270 121h1M387 121h1M93 122h1M209 148h1M270 148h1M387 148h1M93 149h1M226 165h1M253 165h1" />
<path stroke="#2fa560" d="M224 105h1M255 105h1" />
<path stroke="#a1d7b8" d="M225 105h1M254 105h1M220 108h1M259 108h1M213 115h1M210 120h1M269 120h1M388 120h1M92 121h1M210 149h1M269 149h1M388 149h1M92 150h1M225 164h1M254 164h1" />
<path stroke="#eef8f2" d="M226 105h1M253 105h1M216 112h1M263 112h1M394 112h1M86 113h1M210 121h1M269 121h1M388 121h1M92 122h1M272 136h1M385 136h1M95 137h1M210 148h1M269 148h1M388 148h1M92 149h1M226 164h1M253 164h1" />
<path stroke="#94d1ad" d="M227 105h1" />
<path stroke="#39a967" d="M228 105h1M251 105h1M215 112h1M228 164h1M251 164h1" />
<path stroke="#93d1ad" d="M252 105h1M210 122h1M269 122h1M388 122h1M92 123h1M210 147h1M268 151h1M389 151h1M91 152h1M256 163h1M227 164h1M252 164h1" />
<path stroke="#199c50" d="M222 106h1M257 106h1M211 117h1M268 117h1M389 117h1M91 118h1M271 133h1M386 133h1M94 134h1M211 152h1M268 152h1M389 152h1M91 153h1M222 163h1M257 163h1" />
<path stroke="#90cfab" d="M223 106h1M207 140h1M209 147h1" />
<path stroke="#edf7f1" d="M224 106h1M211 119h1M268 119h1M389 119h1M91 120h1M207 133h1M207 136h1M211 150h1M268 150h1M389 150h1M91 151h1M216 157h1" />
<path stroke="#8acca6" d="M225 106h1M211 120h1" />
<path stroke="#209f55" d="M226 106h1M253 106h1M211 121h1M268 121h1M389 121h1M91 122h1M271 136h1M386 136h1M94 137h1M211 148h1M268 148h1M389 148h1M91 149h1M226 163h1M253 163h1" />
<path stroke="#92d0ac" d="M256 106h1M268 118h1M389 118h1M91 119h1M269 147h1M388 147h1M92 148h1M211 151h1M223 163h1" />
<path stroke="#5bb881" d="M221 107h1M212 116h1M267 116h1M390 116h1M90 117h1M212 153h1M221 162h1" />
<path stroke="#e3f3e9" d="M222 107h1M257 107h1M208 126h1M271 126h1M386 126h1M94 127h1" />
<path stroke="#9ed5b5" d="M223 107h1M256 107h1" />
<path stroke="#219f55" d="M224 107h1M255 107h1" />
<path stroke="#5bb882" d="M258 107h1M208 130h1M208 139h1M271 139h1M386 139h1M94 140h1M267 153h1M390 153h1M90 154h1M258 162h1" />
<path stroke="#32a662" d="M400 107h1M80 108h1M210 123h1M269 123h1M388 123h1M92 124h1M210 146h1M269 146h1M388 146h1M92 147h1" />
<path stroke="#179b4d" d="M219 108h1M260 108h1M397 108h1M83 109h1" />
<path stroke="#dff1e6" d="M221 108h1M242 167h1" />
<path stroke="#47af72" d="M222 108h1M257 108h1" />
<path stroke="#def1e6" d="M258 108h1M221 161h1M258 161h1" />
<path stroke="#a0d6b7" d="M398 108h1M82 109h1M208 125h1M271 125h1M386 125h1M94 126h1M208 144h1M271 144h1M386 144h1M94 145h1M398 161h1M82 162h1M230 166h1M249 166h1" />
<path stroke="#2aa35d" d="M218 109h1M261 109h1M396 109h1M84 110h1M218 160h1" />
<path stroke="#acdbc0" d="M220 109h1M259 109h1M220 160h1" />
<path stroke="#1b9d51" d="M221 109h1M258 109h1" />
<path stroke="#abdbbf" d="M398 109h1M82 110h1M259 160h1" />
<path stroke="#3bab6a" d="M217 110h1M262 110h1M395 110h1M85 111h1M264 112h1M393 112h1M87 113h1" />
<path stroke="#e6f4ec" d="M218 110h1M237 167h1" />
<path stroke="#40ad6d" d="M216 111h1" />
<path stroke="#eaf6ef" d="M217 111h1M262 111h1M395 111h1M85 112h1M215 156h1M264 156h1M393 156h1M87 157h1" />
<path stroke="#61bb86" d="M218 111h1M261 111h1M396 111h1M84 112h1" />
<path stroke="#42ad6f" d="M263 111h1M394 111h1M86 112h1M263 158h1M394 158h1M86 159h1" />
<path stroke="#5ab881" d="M217 112h1M262 112h1M395 112h1M85 113h1M217 157h1M262 157h1M395 157h1M85 158h1" />
<path stroke="#65bd89" d="M216 113h1" />
<path stroke="#64bc89" d="M263 113h1M394 113h1M86 114h1M216 156h1M263 156h1M394 156h1M86 157h1" />
<path stroke="#179b4e" d="M213 114h1M266 114h1M391 114h1M89 115h1M213 155h1M266 155h1M391 155h1M89 156h1M260 161h1M397 161h1M83 162h1M238 166h1" />
<path stroke="#80c89e" d="M215 114h1" />
<path stroke="#7fc89e" d="M264 114h1M393 114h1M87 115h1M215 155h1M264 155h1M393 155h1M87 156h1" />
<path stroke="#b3dec5" d="M214 115h1M265 115h1M392 115h1M88 116h1" />
<path stroke="#a2d7b8" d="M266 115h1M391 115h1M89 116h1M259 161h1" />
<path stroke="#e1f2e8" d="M213 116h1M266 116h1M391 116h1M89 117h1M266 153h1M391 153h1M89 154h1" />
<path stroke="#1d9e53" d="M214 116h1M214 153h1M265 153h1M392 153h1M88 154h1" />
<path stroke="#1e9e53" d="M265 116h1M392 116h1M88 117h1M241 166h1" />
<path stroke="#4ab174" d="M213 117h1M266 117h1M391 117h1M89 118h1" />
<path stroke="#91d0ab" d="M211 118h1" />
<path stroke="#a7d9bc" d="M212 118h1M267 118h1M390 118h1M90 119h1M212 151h1M267 151h1M390 151h1M90 152h1M223 162h1" />
<path stroke="#30a661" d="M210 119h1M269 119h1M388 119h1M92 120h1M210 150h1M269 150h1M388 150h1M92 151h1M224 164h1" />
<path stroke="#24a058" d="M212 119h1M224 162h1" />
<path stroke="#23a057" d="M267 119h1M390 119h1M90 120h1M212 150h1M267 150h1M390 150h1M90 151h1M255 162h1" />
<path stroke="#8fcfaa" d="M209 122h1M270 122h1M387 122h1M93 123h1M207 129h1M270 147h1M387 147h1M93 148h1M234 167h1M245 167h1" />
<path stroke="#13994b" d="M208 123h1M271 123h1M386 123h1M94 124h1M208 146h1M271 146h1M386 146h1M94 147h1" />
<path stroke="#e9f6ee" d="M209 123h1M270 123h1M387 123h1M93 124h1M209 146h1M270 146h1M387 146h1M93 147h1" />
<path stroke="#52b47b" d="M208 124h1" />
<path stroke="#cae8d7" d="M209 124h1M270 124h1M387 124h1M93 125h1M209 145h1M270 145h1M387 145h1M93 146h1" />
<path stroke="#51b47a" d="M271 124h1M386 124h1M94 125h1" />
<path stroke="#7bc69a" d="M209 125h1M209 144h1M249 165h1" />
<path stroke="#7ac599" d="M270 125h1M387 125h1M93 126h1M270 144h1M387 144h1M93 145h1" />
<path stroke="#34a764" d="M209 126h1M270 126h1M387 126h1M93 127h1M209 143h1M270 143h1M387 143h1M93 144h1M231 165h1M248 165h1" />
<path stroke="#b0ddc2" d="M208 128h1M271 128h1M386 128h1M94 129h1M208 141h1M233 166h1M246 166h1" />
<path stroke="#82c9a0" d="M208 129h1M271 129h1M386 129h1M94 130h1M208 140h1M271 140h1M386 140h1M94 141h1" />
<path stroke="#8ecea8" d="M272 129h1M385 129h1M95 130h1" />
<path stroke="#5cb983" d="M271 130h1M386 130h1M94 131h1" />
<path stroke="#3eac6c" d="M208 131h1M271 131h1M386 131h1M94 132h1M208 138h1M271 138h1M386 138h1M94 139h1M236 166h1M243 166h1" />
<path stroke="#e2f2e9" d="M207 132h1M207 137h1M272 137h1M385 137h1M95 138h1M218 159h1M261 159h1M396 159h1M84 160h1" />
<path stroke="#27a25a" d="M208 132h1M271 132h1M386 132h1M94 133h1M208 137h1" />
<path stroke="#e7f5ed" d="M272 132h1M385 132h1M95 133h1" />
<path stroke="#f3faf6" d="M272 133h1M385 133h1M95 134h1" />
<path stroke="#f9fdfb" d="M207 134h1M207 135h1M272 135h1M385 135h1M95 136h1" />
<path stroke="#14994b" d="M271 135h1M386 135h1M94 136h1" />
<path stroke="#2ba45d" d="M271 137h1M386 137h1M94 138h1M265 156h1M392 156h1M88 157h1M261 160h1M396 160h1M84 161h1" />
<path stroke="#aedcc1" d="M271 141h1M386 141h1M94 142h1" />
<path stroke="#53b57c" d="M208 145h1M271 145h1M386 145h1M94 146h1" />
<path stroke="#88cca4" d="M268 149h1M389 149h1M91 150h1M254 163h1M234 166h1M245 166h1" />
<path stroke="#49b074" d="M213 152h1M266 152h1M391 152h1M89 153h1M222 161h1M257 161h1" />
<path stroke="#e0f2e7" d="M213 153h1" />
<path stroke="#a3d7b9" d="M213 154h1M266 154h1M391 154h1M89 155h1" />
<path stroke="#d3ecdd" d="M214 155h1M265 155h1M392 155h1M88 156h1M260 160h1M397 160h1M83 161h1M236 167h1M243 167h1" />
<path stroke="#2ca45e" d="M214 156h1" />
<path stroke="#3cab6a" d="M215 157h1M264 157h1M393 157h1M87 158h1" />
<path stroke="#41ad6e" d="M216 158h1" />
<path stroke="#e8f5ee" d="M217 158h1M262 158h1M395 158h1M85 159h1" />
<path stroke="#60ba86" d="M218 158h1" />
<path stroke="#5eba84" d="M261 158h1M396 158h1M84 159h1" />
<path stroke="#36a865" d="M217 159h1M262 159h1M395 159h1M85 160h1" />
<path stroke="#aadabe" d="M398 160h1M82 161h1" />
<path stroke="#159a4c" d="M219 161h1" />
<path stroke="#99d3b1" d="M220 161h1" />
<path stroke="#a6d9bb" d="M256 162h1" />
<path stroke="#31a662" d="M255 164h1" />
<path stroke="#cfeada" d="M229 165h1M250 165h1" />
<path stroke="#28a25a" d="M237 166h1" />
<path stroke="#eff8f3" d="M241 167h1" />
</svg>