<svg xmlns="http://www.w3.org/2000/svg" viewBox="0 -0.5 16 16" shape-rendering="crispEdges">
<metadata>Made with Pixels to Svg https://codepen.io/shshaw/pen/XbxvNj</metadata>
<path stroke="#0dbb5c" d="M0 0h1M3 0h1M6 0h1M9 0h1M12 0h1M15 0h1M0 3h1M15 3h1M0 6h1M15 6h1M0 9h1M15 9h1M0 12h1M15 12h1M0 15h1M3 15h1M6 15h1M9 15h1M12 15h1M15 15h1" />
<path stroke="#00391a" d="M1 0h1M4 0h1M7 0h1M10 0h1M13 0h1M15 1h1M0 2h1M6 4h1M9 4h1M15 4h1M0 5h1M6 5h1M9 5h1M5 7h6M15 7h1M0 8h1M15 10h1M0 11h1M15 13h1M0 14h1M2 15h1M5 15h1M8 15h1M11 15h1M14 15h1" />
<path stroke="#000000" d="M2 0h1M5 0h1M8 0h1M11 0h1M14 0h1M0 1h1M15 2h1M0 4h1M15 5h1M0 7h1M15 8h1M0 10h1M15 11h1M0 13h1M15 14h1M1 15h1M4 15h1M7 15h1M10 15h1M13 15h1" />
<path stroke="#333333" d="M1 1h1M6 1h4M14 1h1M1 2h1M14 2h1M1 3h1M14 3h1M1 4h1M14 4h1M1 5h2M13 5h2M1 6h1M14 6h1M1 9h1M14 9h1M1 13h1M7 13h2M14 13h1M1 14h1M6 14h4M14 14h1" />
<path stroke="#276935" d="M2 1h4M10 1h4M2 2h1M5 2h6M13 2h1M2 3h1M13 3h1M2 4h2M12 4h2M3 5h1M12 5h1M2 6h1M13 6h1M1 7h1M14 7h1M1 8h2M13 8h2M2 9h12M1 10h1M3 10h2M11 10h2M14 10h1M1 11h1M3 11h1M12 11h1M14 11h1M1 12h3M6 12h4M12 12h3M2 13h1M5 13h2M9 13h2M13 13h1M2 14h4M10 14h4" />
<path stroke="#72a541" d="M3 2h2M11 2h2M3 3h10M4 4h2M7 4h2M10 4h2M4 5h2M7 5h2M10 5h2M3 6h4M9 6h4M2 7h3M11 7h3M3 8h10M2 10h1M5 10h6M13 10h1M2 11h1M4 11h8M13 11h1M4 12h2M10 12h2M3 13h2M11 13h2" />
<path stroke="#3e6d34" d="M7 6h2" />
</svg>