<svg xmlns="http://www.w3.org/2000/svg" viewBox="0 -0.5 14 14" shape-rendering="crispEdges">
<metadata>Made with Pixels to Svg https://codepen.io/shshaw/pen/XbxvNj</metadata>
<path stroke="#303030" d="M0 0h1M3 0h1M6 0h2M11 0h1M13 1h1M0 3h1M13 4h1M0 6h1M13 7h1M0 9h1M13 10h1M0 12h1M2 13h3M9 13h3M13 13h1" />
<path stroke="#881e1e" d="M1 0h1M4 0h1M9 0h1M12 0h1M0 2h1M13 2h1M0 5h1M13 5h1M0 8h1M13 8h1M0 11h1M13 11h1" />
<path stroke="#250a0a" d="M2 0h1M10 0h1M13 0h1M0 1h1M13 3h1M0 4h1M13 6h1M0 7h1M13 9h1M0 10h1M4 10h1M9 10h1M3 11h1M5 11h4M10 11h1M4 12h1M9 12h1M13 12h1M0 13h1M5 13h4" />
<path stroke="#000000" d="M5 0h1M8 0h1M2 1h1M6 1h2M11 1h1M3 2h1M5 2h4M10 2h1M1 3h1M12 3h1M2 4h1M11 4h1M2 10h1M11 10h1M1 11h1M12 11h1M2 12h1M11 12h1M1 13h1M12 13h1" />
<path stroke="rgba(0,0,0,0.03529411764705882)" d="M3 1h1" />
<path stroke="rgba(0,0,0,0.00392156862745098)" d="M4 1h1M9 1h1M2 3h1M11 3h1" />
<path stroke="rgba(0,0,0,0.027450980392156862)" d="M10 1h1" />
<path stroke="rgba(0,0,0,0.050980392156862744)" d="M4 2h1M9 2h1" />
<path stroke="#9c2c2d" d="M4 3h2M8 3h2M3 4h2M9 4h2M3 5h1M10 5h1M2 8h1M11 8h1M2 9h1M11 9h1M3 10h1M10 10h1M4 11h1M9 11h1M5 12h4" />
<path stroke="#7d2828" d="M6 3h2" />
<path stroke="#3e1213" d="M5 4h4M4 5h1M9 5h1M3 6h1M10 6h1M3 7h1M10 7h1M3 8h1M10 8h1M3 9h1M10 9h1" />
<path stroke="rgba(128,0,0,0.00784313725490196)" d="M2 5h1" />
<path stroke="#b52025" d="M5 5h4M4 6h1M6 6h2M9 6h1M4 7h2M8 7h2M4 8h2M8 8h2M4 9h1M6 9h2M9 9h1M5 10h4" />
<path stroke="rgba(170,85,85,0.011764705882352941)" d="M11 5h1" />
<path stroke="#b02e2f" d="M2 6h1M11 6h1M2 7h1M11 7h1" />
<path stroke="#ffffff" d="M5 6h1M8 6h1M6 7h2" />
<path stroke="#9c9c9c" d="M6 8h2M5 9h1M8 9h1" />
<path stroke="rgba(255,0,0,0.00392156862745098)" d="M3 12h1M10 12h1" />
</svg>