<svg xmlns="http://www.w3.org/2000/svg" viewBox="0 -0.5 16 16" shape-rendering="crispEdges">
<metadata>Made with Pixels to Svg https://codepen.io/shshaw/pen/XbxvNj</metadata>
<path stroke="#4b4f4c" d="M0 0h1M4 0h1M7 0h1M10 0h1M14 0h1M15 2h1M0 3h1M15 5h1M0 6h1M0 9h1M15 9h1M3 15h1M15 15h1" />
<path stroke="#3d413e" d="M1 0h1M5 0h1M8 0h1M11 0h1M15 1h1M0 2h1M15 4h1M0 5h1M15 7h1M0 8h1M1 15h1M14 15h1" />
<path stroke="#000000" d="M2 0h1M13 0h1M3 1h2M11 1h2M5 2h1M10 2h1M5 5h6M5 6h1M7 6h2M10 6h1M5 7h6M5 8h2M9 8h2M5 12h1M10 12h1M10 13h1M5 14h1M5 15h1M10 15h1" />
<path stroke="#868b88" d="M3 0h1M6 0h1M9 0h1M12 0h1M15 0h1M0 1h1M15 3h1M0 4h1M15 6h1M0 7h1M15 8h1M0 15h1M12 15h1" />
<path stroke="rgba(0,0,0,0.0392156862745098)" d="M2 1h1" />
<path stroke="rgba(0,0,0,0.023529411764705882)" d="M13 1h1" />
<path stroke="#2d2d2d" d="M3 3h10M3 4h1M12 4h1M3 5h1M12 5h1M3 6h1M12 6h1M3 7h1M12 7h1M3 8h1M12 8h1M3 9h1M12 9h1M3 10h10" />
<path stroke="#8a938d" d="M4 4h8M4 5h1M11 5h1M4 6h1M11 6h1M4 7h1M11 7h1M4 8h1M11 8h1M4 9h8" />
<path stroke="#067d33" d="M6 6h1M9 6h1M7 8h2" />
<path stroke="#1d2520" d="M2 8h1M13 8h1M1 9h1M14 9h1M0 10h1M15 10h1M0 11h1M15 11h1M0 12h1M2 12h1M13 12h1M15 12h1M0 13h2M14 13h2M0 14h2M14 14h2M2 15h1M13 15h1" />
<path stroke="#da641a" d="M4 12h1M6 12h1M9 12h1M11 12h1M4 13h3M9 13h1M11 13h1M4 14h1M6 14h1M9 14h3M4 15h1M6 15h1M9 15h1M11 15h1" />
<path stroke="#2d2d2c" d="M7 12h2M7 13h2M7 14h2M7 15h2" />
</svg>