<svg xmlns="http://www.w3.org/2000/svg" viewBox="0 -0.5 14 16" shape-rendering="crispEdges">
<metadata>Made with Pixels to Svg https://codepen.io/shshaw/pen/XbxvNj</metadata>
<path stroke="#969595" d="M0 0h1M3 0h1M9 0h1M12 0h1M13 2h1M1 3h3M10 3h3M1 4h1M12 4h1M1 5h1M12 5h1M1 6h1M12 6h1M1 7h1M12 7h1M1 8h2M11 8h2M0 9h1M13 11h1M0 12h1M2 13h1M9 13h1M12 13h1" />
<path stroke="#c9c8c8" d="M1 0h1M4 0h1M10 0h1M13 0h1M0 2h1M4 3h2M8 3h2M13 9h1M0 11h1M13 12h1M1 13h1M4 13h1M11 13h1" />
<path stroke="#2e3033" d="M2 0h1M5 0h1M8 0h1M11 0h1M0 1h1M13 1h1M0 10h1M13 10h1M0 13h1M3 13h1M10 13h1M13 13h1" />
<path stroke="#4c4c4c" d="M6 0h2M5 11h1M8 11h1M5 12h1M8 12h1M5 13h1M8 13h1" />
<path stroke="rgba(0,0,0,0.00392156862745098)" d="M4 1h1M9 1h1" />
<path stroke="#363636" d="M5 1h1M8 1h1M5 7h1M8 7h1M6 8h2M5 10h1M8 10h1M6 13h2" />
<path stroke="#a46026" d="M6 1h2M6 10h2M6 11h2M6 12h2" />
<path stroke="#777777" d="M1 2h1M4 2h6M12 2h1M0 3h1M13 3h1M0 8h1M13 8h1M1 9h1M5 9h4M12 9h1" />
<path stroke="#908f8f" d="M2 2h2M10 2h2M0 4h1M13 4h1M0 5h1M13 5h1M0 6h1M13 6h1M0 7h1M13 7h1M2 9h3M9 9h3" />
<path stroke="#a7a6a6" d="M6 3h2M5 4h4M5 5h4M5 6h4M6 7h2M3 8h1M10 8h1" />
<path stroke="#f9f9f9" d="M2 4h3M9 4h3M2 5h1M11 5h1M2 6h1M11 6h1" />
<path stroke="#000000" d="M3 5h2M9 5h2M3 6h2M9 6h2" />
<path stroke="#b0aeae" d="M2 7h1M11 7h1M4 8h2M8 8h2" />
<path stroke="#a1a1a1" d="M3 7h2M9 7h2" />
</svg>