<svg xmlns="http://www.w3.org/2000/svg" viewBox="0 -0.5 10 10" shape-rendering="crispEdges">
<metadata>Made with Pixels to Svg https://codepen.io/shshaw/pen/XbxvNj</metadata>
<path stroke="#222222" d="M0 0h1M3 0h1M6 0h1M9 0h1M0 2h1M9 3h1M0 5h1M9 6h1M0 8h1M2 9h1M9 9h1" />
<path stroke="#77220f" d="M1 0h1M4 0h1M7 0h1M0 1h1M9 1h1M0 4h1M9 4h1M0 7h1M9 7h1M1 9h1M8 9h1" />
<path stroke="#f11512" d="M2 0h1M5 0h1M8 0h1M9 2h1M0 3h1M9 5h1M0 6h1M9 8h1M0 9h1M7 9h1" />
<path stroke="#be3516" d="M1 1h1M8 1h1M1 2h1M8 2h1M1 3h1M8 3h1M1 4h1M8 4h1M1 5h1M8 5h1M1 6h1M8 6h1M1 7h1M8 7h1M2 8h1M7 8h1M3 9h4" />
<path stroke="#d43b19" d="M2 1h6" />
<path stroke="#ef4823" d="M2 2h6M2 3h1M7 3h1M2 4h1M4 4h4M2 5h1M7 5h1M2 6h4M7 6h1M2 7h1M7 7h1M3 8h4" />
<path stroke="#ffffff" d="M3 3h4M3 4h1M3 5h4M6 6h1M3 7h4" />
</svg>