<svg xmlns="http://www.w3.org/2000/svg" viewBox="0 -0.5 12 12" shape-rendering="crispEdges">
<metadata>Made with Pixels to Svg https://codepen.io/shshaw/pen/XbxvNj</metadata>
<path stroke="#011f0d" d="M0 0h1M9 0h1M11 1h1M0 8h1M11 8h1M0 11h1M3 11h1M8 11h1M11 11h1" />
<path stroke="#045222" d="M1 0h1M10 0h1M0 2h1M11 2h1M11 9h1M0 10h1M2 11h1M7 11h1M10 11h1" />
<path stroke="#083c1b" d="M2 0h1M11 0h1M0 1h1M0 9h1M11 10h1M1 11h1M4 11h1M9 11h1" />
<path stroke="#525151" d="M3 0h1M8 0h1M5 10h2" />
<path stroke="#444444" d="M4 0h4M0 3h1M11 3h1M0 4h1M11 4h1M0 5h1M11 5h1M0 6h1M11 6h1M3 10h1M8 10h1" />
<path stroke="#393838" d="M2 1h1M9 1h1M1 2h1M10 2h1M0 7h1M11 7h1M1 8h1M10 8h1M2 9h1M9 9h1M4 10h1M7 10h1M5 11h2" />
<path stroke="#149f49" d="M3 1h2M7 1h2M1 3h1M10 3h1M2 4h1M4 4h3M9 4h1M2 5h1M4 5h1M9 5h1M2 6h1M4 6h1M7 6h1M9 6h1M1 7h1M3 7h2M7 7h2M10 7h1M3 9h2M7 9h2" />
<path stroke="#069f40" d="M5 1h2" />
<path stroke="rgba(51,51,51,0.058823529411764705)" d="M10 1h1" />
<path stroke="#148b41" d="M2 2h1M9 2h1M5 3h2M3 5h1M8 5h1M5 7h2M2 8h1M9 8h1" />
<path stroke="#15b853" d="M3 2h1M8 2h1" />
<path stroke="#000000" d="M4 2h4M3 3h2M7 3h2M3 4h1M7 4h2M5 5h3M5 6h2M5 8h2M5 9h2" />
<path stroke="#ffffff" d="M2 3h1M9 3h1M1 4h1M10 4h1M1 5h1M10 5h1M1 6h1M10 6h1M2 7h1M9 7h1" />
<path stroke="#129946" d="M3 6h1M8 6h1M3 8h2M7 8h2" />
</svg>