<svg xmlns="http://www.w3.org/2000/svg" viewBox="0 -0.5 9 9" shape-rendering="crispEdges">
<metadata>Made with Pixels to Svg https://codepen.io/shshaw/pen/XbxvNj</metadata>
<path stroke="#000000" d="M0 0h1M8 0h1M0 8h1M8 8h1" />
<path stroke="#555353" d="M1 0h1M8 1h1M0 7h1M7 8h1" />
<path stroke="rgba(151,151,255,0.7137254901960784)" d="M2 0h1M8 2h1" />
<path stroke="rgba(118,118,255,0.9215686274509803)" d="M3 0h1M5 0h1M8 3h1" />
<path stroke="rgba(110,110,255,0.9882352941176471)" d="M4 0h1M8 4h1" />
<path stroke="rgba(58,58,255,0.5686274509803921)" d="M6 0h1M6 8h1" />
<path stroke="#9f9797" d="M7 0h1M0 1h1M8 7h1M1 8h1" />
<path stroke="rgba(41,41,255,0.803921568627451)" d="M1 1h1M7 1h1M1 7h1M7 7h1" />
<path stroke="#0000ff" d="M2 1h5M1 2h2M4 2h1M6 2h2M1 3h1M7 3h1M1 4h1M7 4h1M1 5h1M5 5h1M7 5h1M1 6h1M3 6h1M5 6h1M7 6h1M2 7h5" />
<path stroke="rgba(99,99,255,0.6274509803921569)" d="M0 2h1" />
<path stroke="#ffffff" d="M3 2h1M5 2h1M2 3h5M2 4h1M4 4h1M6 4h1M2 5h1M2 6h1M6 6h1" />
<path stroke="rgba(95,95,255,0.9098039215686274)" d="M0 3h1M0 5h1M5 8h1" />
<path stroke="rgba(88,88,255,0.9882352941176471)" d="M0 4h1M4 8h1" />
<path stroke="#0404ff" d="M3 4h1" />
<path stroke="#0505ff" d="M5 4h1" />
<path stroke="#0202ff" d="M3 5h1" />
<path stroke="#0606ff" d="M4 5h1" />
<path stroke="#fbfbff" d="M6 5h1" />
<path stroke="rgba(118,118,255,0.9254901960784314)" d="M8 5h1" />
<path stroke="rgba(127,127,255,0.6784313725490196)" d="M0 6h1" />
<path stroke="#0101ff" d="M4 6h1" />
<path stroke="rgba(0,0,255,0.5058823529411764)" d="M8 6h1M2 8h1" />
<path stroke="rgba(69,69,255,0.8980392156862745)" d="M3 8h1" />
</svg>